G04 #@! TF.GenerationSoftware,KiCad,Pcbnew,(5.1.6)-1*
G04 #@! TF.CreationDate,2021-07-12T15:37:42+03:00*
G04 #@! TF.ProjectId,detector,64657465-6374-46f7-922e-6b696361645f,rev?*
G04 #@! TF.SameCoordinates,Original*
G04 #@! TF.FileFunction,Paste,Bot*
G04 #@! TF.FilePolarity,Positive*
%FSLAX46Y46*%
G04 Gerber Fmt 4.6, Leading zero omitted, Abs format (unit mm)*
G04 Created by KiCad (PCBNEW (5.1.6)-1) date 2021-07-12 15:37:42*
%MOMM*%
%LPD*%
G01*
G04 APERTURE LIST*
G04 APERTURE END LIST*
G36*
G01*
X36125000Y-29925000D02*
X34875000Y-29925000D01*
G75*
G02*
X34625000Y-29675000I0J250000D01*
G01*
X34625000Y-28750000D01*
G75*
G02*
X34875000Y-28500000I250000J0D01*
G01*
X36125000Y-28500000D01*
G75*
G02*
X36375000Y-28750000I0J-250000D01*
G01*
X36375000Y-29675000D01*
G75*
G02*
X36125000Y-29925000I-250000J0D01*
G01*
G37*
G36*
G01*
X36125000Y-32900000D02*
X34875000Y-32900000D01*
G75*
G02*
X34625000Y-32650000I0J250000D01*
G01*
X34625000Y-31725000D01*
G75*
G02*
X34875000Y-31475000I250000J0D01*
G01*
X36125000Y-31475000D01*
G75*
G02*
X36375000Y-31725000I0J-250000D01*
G01*
X36375000Y-32650000D01*
G75*
G02*
X36125000Y-32900000I-250000J0D01*
G01*
G37*
G36*
G01*
X34995000Y-38225000D02*
X34995000Y-36975000D01*
G75*
G02*
X35245000Y-36725000I250000J0D01*
G01*
X36170000Y-36725000D01*
G75*
G02*
X36420000Y-36975000I0J-250000D01*
G01*
X36420000Y-38225000D01*
G75*
G02*
X36170000Y-38475000I-250000J0D01*
G01*
X35245000Y-38475000D01*
G75*
G02*
X34995000Y-38225000I0J250000D01*
G01*
G37*
G36*
G01*
X32020000Y-38225000D02*
X32020000Y-36975000D01*
G75*
G02*
X32270000Y-36725000I250000J0D01*
G01*
X33195000Y-36725000D01*
G75*
G02*
X33445000Y-36975000I0J-250000D01*
G01*
X33445000Y-38225000D01*
G75*
G02*
X33195000Y-38475000I-250000J0D01*
G01*
X32270000Y-38475000D01*
G75*
G02*
X32020000Y-38225000I0J250000D01*
G01*
G37*
G36*
G01*
X33636066Y-26499949D02*
X34519949Y-25616065D01*
G75*
G02*
X34873503Y-25616065I176777J-176777D01*
G01*
X35527577Y-26270139D01*
G75*
G02*
X35527577Y-26623693I-176777J-176777D01*
G01*
X34643693Y-27507577D01*
G75*
G02*
X34290139Y-27507577I-176777J176777D01*
G01*
X33636065Y-26853503D01*
G75*
G02*
X33636065Y-26499949I176777J176777D01*
G01*
G37*
G36*
G01*
X31532424Y-24396307D02*
X32416307Y-23512423D01*
G75*
G02*
X32769861Y-23512423I176777J-176777D01*
G01*
X33423935Y-24166497D01*
G75*
G02*
X33423935Y-24520051I-176777J-176777D01*
G01*
X32540051Y-25403935D01*
G75*
G02*
X32186497Y-25403935I-176777J176777D01*
G01*
X31532423Y-24749861D01*
G75*
G02*
X31532423Y-24396307I176777J176777D01*
G01*
G37*
G36*
G01*
X29375000Y-23415000D02*
X29375000Y-22165000D01*
G75*
G02*
X29625000Y-21915000I250000J0D01*
G01*
X30550000Y-21915000D01*
G75*
G02*
X30800000Y-22165000I0J-250000D01*
G01*
X30800000Y-23415000D01*
G75*
G02*
X30550000Y-23665000I-250000J0D01*
G01*
X29625000Y-23665000D01*
G75*
G02*
X29375000Y-23415000I0J250000D01*
G01*
G37*
G36*
G01*
X26400000Y-23415000D02*
X26400000Y-22165000D01*
G75*
G02*
X26650000Y-21915000I250000J0D01*
G01*
X27575000Y-21915000D01*
G75*
G02*
X27825000Y-22165000I0J-250000D01*
G01*
X27825000Y-23415000D01*
G75*
G02*
X27575000Y-23665000I-250000J0D01*
G01*
X26650000Y-23665000D01*
G75*
G02*
X26400000Y-23415000I0J250000D01*
G01*
G37*
M02*
