G04 #@! TF.GenerationSoftware,KiCad,Pcbnew,(5.1.6)-1*
G04 #@! TF.CreationDate,2021-07-12T15:37:42+03:00*
G04 #@! TF.ProjectId,detector,64657465-6374-46f7-922e-6b696361645f,rev?*
G04 #@! TF.SameCoordinates,Original*
G04 #@! TF.FileFunction,Legend,Bot*
G04 #@! TF.FilePolarity,Positive*
%FSLAX46Y46*%
G04 Gerber Fmt 4.6, Leading zero omitted, Abs format (unit mm)*
G04 Created by KiCad (PCBNEW (5.1.6)-1) date 2021-07-12 15:37:42*
%MOMM*%
%LPD*%
G01*
G04 APERTURE LIST*
%ADD10C,0.150000*%
%ADD11C,0.120000*%
G04 APERTURE END LIST*
D10*
X39212023Y-22686904D02*
X39212023Y-21886904D01*
X38945357Y-22458333D01*
X38678690Y-21886904D01*
X38678690Y-22686904D01*
X38297738Y-22686904D02*
X38297738Y-21886904D01*
X38107261Y-21886904D01*
X37992976Y-21925000D01*
X37916785Y-22001190D01*
X37878690Y-22077380D01*
X37840595Y-22229761D01*
X37840595Y-22344047D01*
X37878690Y-22496428D01*
X37916785Y-22572619D01*
X37992976Y-22648809D01*
X38107261Y-22686904D01*
X38297738Y-22686904D01*
X37573928Y-22153571D02*
X37383452Y-22686904D01*
X37192976Y-22153571D01*
X36469166Y-22686904D02*
X36926309Y-22686904D01*
X36697738Y-22686904D02*
X36697738Y-21886904D01*
X36773928Y-22001190D01*
X36850119Y-22077380D01*
X36926309Y-22115476D01*
X36126309Y-22610714D02*
X36088214Y-22648809D01*
X36126309Y-22686904D01*
X36164404Y-22648809D01*
X36126309Y-22610714D01*
X36126309Y-22686904D01*
X35402500Y-21886904D02*
X35554880Y-21886904D01*
X35631071Y-21925000D01*
X35669166Y-21963095D01*
X35745357Y-22077380D01*
X35783452Y-22229761D01*
X35783452Y-22534523D01*
X35745357Y-22610714D01*
X35707261Y-22648809D01*
X35631071Y-22686904D01*
X35478690Y-22686904D01*
X35402500Y-22648809D01*
X35364404Y-22610714D01*
X35326309Y-22534523D01*
X35326309Y-22344047D01*
X35364404Y-22267857D01*
X35402500Y-22229761D01*
X35478690Y-22191666D01*
X35631071Y-22191666D01*
X35707261Y-22229761D01*
X35745357Y-22267857D01*
X35783452Y-22344047D01*
X39212023Y-23617857D02*
X38945357Y-23617857D01*
X38831071Y-24036904D02*
X39212023Y-24036904D01*
X39212023Y-23236904D01*
X38831071Y-23236904D01*
X38526309Y-23808333D02*
X38145357Y-23808333D01*
X38602500Y-24036904D02*
X38335833Y-23236904D01*
X38069166Y-24036904D01*
X37840595Y-23313095D02*
X37802500Y-23275000D01*
X37726309Y-23236904D01*
X37535833Y-23236904D01*
X37459642Y-23275000D01*
X37421547Y-23313095D01*
X37383452Y-23389285D01*
X37383452Y-23465476D01*
X37421547Y-23579761D01*
X37878690Y-24036904D01*
X37383452Y-24036904D01*
X36621547Y-24036904D02*
X37078690Y-24036904D01*
X36850119Y-24036904D02*
X36850119Y-23236904D01*
X36926309Y-23351190D01*
X37002500Y-23427380D01*
X37078690Y-23465476D01*
D11*
X36410000Y-31302064D02*
X36410000Y-30097936D01*
X34590000Y-31302064D02*
X34590000Y-30097936D01*
X33617936Y-36690000D02*
X34822064Y-36690000D01*
X33617936Y-38510000D02*
X34822064Y-38510000D01*
X32460809Y-25727744D02*
X33312256Y-26579191D01*
X33747744Y-24440809D02*
X34599191Y-25292256D01*
X27997936Y-23700000D02*
X29202064Y-23700000D01*
X27997936Y-21880000D02*
X29202064Y-21880000D01*
X34159999Y-31279103D02*
G75*
G03*
X34159999Y-31279103I-6099999J0D01*
G01*
D10*
X36366666Y-28057142D02*
X36414285Y-28104761D01*
X36557142Y-28152380D01*
X36652380Y-28152380D01*
X36795238Y-28104761D01*
X36890476Y-28009523D01*
X36938095Y-27914285D01*
X36985714Y-27723809D01*
X36985714Y-27580952D01*
X36938095Y-27390476D01*
X36890476Y-27295238D01*
X36795238Y-27200000D01*
X36652380Y-27152380D01*
X36557142Y-27152380D01*
X36414285Y-27200000D01*
X36366666Y-27247619D01*
X36033333Y-27152380D02*
X35414285Y-27152380D01*
X35747619Y-27533333D01*
X35604761Y-27533333D01*
X35509523Y-27580952D01*
X35461904Y-27628571D01*
X35414285Y-27723809D01*
X35414285Y-27961904D01*
X35461904Y-28057142D01*
X35509523Y-28104761D01*
X35604761Y-28152380D01*
X35890476Y-28152380D01*
X35985714Y-28104761D01*
X36033333Y-28057142D01*
X31547142Y-37583333D02*
X31594761Y-37535714D01*
X31642380Y-37392857D01*
X31642380Y-37297619D01*
X31594761Y-37154761D01*
X31499523Y-37059523D01*
X31404285Y-37011904D01*
X31213809Y-36964285D01*
X31070952Y-36964285D01*
X30880476Y-37011904D01*
X30785238Y-37059523D01*
X30690000Y-37154761D01*
X30642380Y-37297619D01*
X30642380Y-37392857D01*
X30690000Y-37535714D01*
X30737619Y-37583333D01*
X30737619Y-37964285D02*
X30690000Y-38011904D01*
X30642380Y-38107142D01*
X30642380Y-38345238D01*
X30690000Y-38440476D01*
X30737619Y-38488095D01*
X30832857Y-38535714D01*
X30928095Y-38535714D01*
X31070952Y-38488095D01*
X31642380Y-37916666D01*
X31642380Y-38535714D01*
X34797969Y-24887732D02*
X35370389Y-24786717D01*
X35202030Y-25291793D02*
X35909137Y-24584687D01*
X35639763Y-24315312D01*
X35538748Y-24281641D01*
X35471404Y-24281641D01*
X35370389Y-24315312D01*
X35269374Y-24416328D01*
X35235702Y-24517343D01*
X35235702Y-24584687D01*
X35269374Y-24685702D01*
X35538748Y-24955076D01*
X34663282Y-23810236D02*
X34191877Y-24281641D01*
X35101015Y-23709221D02*
X34764297Y-24382656D01*
X34326564Y-23944923D01*
X25982380Y-22633333D02*
X25506190Y-22300000D01*
X25982380Y-22061904D02*
X24982380Y-22061904D01*
X24982380Y-22442857D01*
X25030000Y-22538095D01*
X25077619Y-22585714D01*
X25172857Y-22633333D01*
X25315714Y-22633333D01*
X25410952Y-22585714D01*
X25458571Y-22538095D01*
X25506190Y-22442857D01*
X25506190Y-22061904D01*
X25077619Y-23014285D02*
X25030000Y-23061904D01*
X24982380Y-23157142D01*
X24982380Y-23395238D01*
X25030000Y-23490476D01*
X25077619Y-23538095D01*
X25172857Y-23585714D01*
X25268095Y-23585714D01*
X25410952Y-23538095D01*
X25982380Y-22966666D01*
X25982380Y-23585714D01*
X35301428Y-32230952D02*
X35253809Y-32088095D01*
X35206190Y-32040476D01*
X35110952Y-31992857D01*
X34968095Y-31992857D01*
X34872857Y-32040476D01*
X34825238Y-32088095D01*
X34777619Y-32183333D01*
X34777619Y-32564285D01*
X35777619Y-32564285D01*
X35777619Y-32230952D01*
X35730000Y-32135714D01*
X35682380Y-32088095D01*
X35587142Y-32040476D01*
X35491904Y-32040476D01*
X35396666Y-32088095D01*
X35349047Y-32135714D01*
X35301428Y-32230952D01*
X35301428Y-32564285D01*
X35777619Y-31659523D02*
X35777619Y-30992857D01*
X34777619Y-31659523D01*
X34777619Y-30992857D01*
X34777619Y-30088095D02*
X34777619Y-30659523D01*
X34777619Y-30373809D02*
X35777619Y-30373809D01*
X35634761Y-30469047D01*
X35539523Y-30564285D01*
X35491904Y-30659523D01*
X32293322Y-33674288D02*
X31912369Y-33014459D01*
X31772931Y-33534850D02*
X32432760Y-33153898D01*
M02*
