G04 #@! TF.GenerationSoftware,KiCad,Pcbnew,(5.1.6)-1*
G04 #@! TF.CreationDate,2021-07-12T15:37:42+03:00*
G04 #@! TF.ProjectId,detector,64657465-6374-46f7-922e-6b696361645f,rev?*
G04 #@! TF.SameCoordinates,Original*
G04 #@! TF.FileFunction,Soldermask,Top*
G04 #@! TF.FilePolarity,Negative*
%FSLAX46Y46*%
G04 Gerber Fmt 4.6, Leading zero omitted, Abs format (unit mm)*
G04 Created by KiCad (PCBNEW (5.1.6)-1) date 2021-07-12 15:37:42*
%MOMM*%
%LPD*%
G01*
G04 APERTURE LIST*
%ADD10O,1.800000X1.800000*%
%ADD11R,1.800000X1.800000*%
%ADD12R,1.000000X0.900000*%
%ADD13R,1.800000X1.400000*%
%ADD14C,2.100000*%
G04 APERTURE END LIST*
G36*
G01*
X33750000Y-24965000D02*
X33750000Y-24615000D01*
G75*
G02*
X33925000Y-24440000I175000J0D01*
G01*
X35625000Y-24440000D01*
G75*
G02*
X35800000Y-24615000I0J-175000D01*
G01*
X35800000Y-24965000D01*
G75*
G02*
X35625000Y-25140000I-175000J0D01*
G01*
X33925000Y-25140000D01*
G75*
G02*
X33750000Y-24965000I0J175000D01*
G01*
G37*
G36*
G01*
X33750000Y-26235000D02*
X33750000Y-25885000D01*
G75*
G02*
X33925000Y-25710000I175000J0D01*
G01*
X35625000Y-25710000D01*
G75*
G02*
X35800000Y-25885000I0J-175000D01*
G01*
X35800000Y-26235000D01*
G75*
G02*
X35625000Y-26410000I-175000J0D01*
G01*
X33925000Y-26410000D01*
G75*
G02*
X33750000Y-26235000I0J175000D01*
G01*
G37*
G36*
G01*
X33750000Y-27505000D02*
X33750000Y-27155000D01*
G75*
G02*
X33925000Y-26980000I175000J0D01*
G01*
X35625000Y-26980000D01*
G75*
G02*
X35800000Y-27155000I0J-175000D01*
G01*
X35800000Y-27505000D01*
G75*
G02*
X35625000Y-27680000I-175000J0D01*
G01*
X33925000Y-27680000D01*
G75*
G02*
X33750000Y-27505000I0J175000D01*
G01*
G37*
G36*
G01*
X33750000Y-28775000D02*
X33750000Y-28425000D01*
G75*
G02*
X33925000Y-28250000I175000J0D01*
G01*
X35625000Y-28250000D01*
G75*
G02*
X35800000Y-28425000I0J-175000D01*
G01*
X35800000Y-28775000D01*
G75*
G02*
X35625000Y-28950000I-175000J0D01*
G01*
X33925000Y-28950000D01*
G75*
G02*
X33750000Y-28775000I0J175000D01*
G01*
G37*
G36*
G01*
X33750000Y-30045000D02*
X33750000Y-29695000D01*
G75*
G02*
X33925000Y-29520000I175000J0D01*
G01*
X35625000Y-29520000D01*
G75*
G02*
X35800000Y-29695000I0J-175000D01*
G01*
X35800000Y-30045000D01*
G75*
G02*
X35625000Y-30220000I-175000J0D01*
G01*
X33925000Y-30220000D01*
G75*
G02*
X33750000Y-30045000I0J175000D01*
G01*
G37*
G36*
G01*
X33750000Y-31315000D02*
X33750000Y-30965000D01*
G75*
G02*
X33925000Y-30790000I175000J0D01*
G01*
X35625000Y-30790000D01*
G75*
G02*
X35800000Y-30965000I0J-175000D01*
G01*
X35800000Y-31315000D01*
G75*
G02*
X35625000Y-31490000I-175000J0D01*
G01*
X33925000Y-31490000D01*
G75*
G02*
X33750000Y-31315000I0J175000D01*
G01*
G37*
G36*
G01*
X33750000Y-32585000D02*
X33750000Y-32235000D01*
G75*
G02*
X33925000Y-32060000I175000J0D01*
G01*
X35625000Y-32060000D01*
G75*
G02*
X35800000Y-32235000I0J-175000D01*
G01*
X35800000Y-32585000D01*
G75*
G02*
X35625000Y-32760000I-175000J0D01*
G01*
X33925000Y-32760000D01*
G75*
G02*
X33750000Y-32585000I0J175000D01*
G01*
G37*
G36*
G01*
X28800000Y-32585000D02*
X28800000Y-32235000D01*
G75*
G02*
X28975000Y-32060000I175000J0D01*
G01*
X30675000Y-32060000D01*
G75*
G02*
X30850000Y-32235000I0J-175000D01*
G01*
X30850000Y-32585000D01*
G75*
G02*
X30675000Y-32760000I-175000J0D01*
G01*
X28975000Y-32760000D01*
G75*
G02*
X28800000Y-32585000I0J175000D01*
G01*
G37*
G36*
G01*
X28800000Y-31315000D02*
X28800000Y-30965000D01*
G75*
G02*
X28975000Y-30790000I175000J0D01*
G01*
X30675000Y-30790000D01*
G75*
G02*
X30850000Y-30965000I0J-175000D01*
G01*
X30850000Y-31315000D01*
G75*
G02*
X30675000Y-31490000I-175000J0D01*
G01*
X28975000Y-31490000D01*
G75*
G02*
X28800000Y-31315000I0J175000D01*
G01*
G37*
G36*
G01*
X28800000Y-30045000D02*
X28800000Y-29695000D01*
G75*
G02*
X28975000Y-29520000I175000J0D01*
G01*
X30675000Y-29520000D01*
G75*
G02*
X30850000Y-29695000I0J-175000D01*
G01*
X30850000Y-30045000D01*
G75*
G02*
X30675000Y-30220000I-175000J0D01*
G01*
X28975000Y-30220000D01*
G75*
G02*
X28800000Y-30045000I0J175000D01*
G01*
G37*
G36*
G01*
X28800000Y-28775000D02*
X28800000Y-28425000D01*
G75*
G02*
X28975000Y-28250000I175000J0D01*
G01*
X30675000Y-28250000D01*
G75*
G02*
X30850000Y-28425000I0J-175000D01*
G01*
X30850000Y-28775000D01*
G75*
G02*
X30675000Y-28950000I-175000J0D01*
G01*
X28975000Y-28950000D01*
G75*
G02*
X28800000Y-28775000I0J175000D01*
G01*
G37*
G36*
G01*
X28800000Y-27505000D02*
X28800000Y-27155000D01*
G75*
G02*
X28975000Y-26980000I175000J0D01*
G01*
X30675000Y-26980000D01*
G75*
G02*
X30850000Y-27155000I0J-175000D01*
G01*
X30850000Y-27505000D01*
G75*
G02*
X30675000Y-27680000I-175000J0D01*
G01*
X28975000Y-27680000D01*
G75*
G02*
X28800000Y-27505000I0J175000D01*
G01*
G37*
G36*
G01*
X28800000Y-26235000D02*
X28800000Y-25885000D01*
G75*
G02*
X28975000Y-25710000I175000J0D01*
G01*
X30675000Y-25710000D01*
G75*
G02*
X30850000Y-25885000I0J-175000D01*
G01*
X30850000Y-26235000D01*
G75*
G02*
X30675000Y-26410000I-175000J0D01*
G01*
X28975000Y-26410000D01*
G75*
G02*
X28800000Y-26235000I0J175000D01*
G01*
G37*
G36*
G01*
X28800000Y-24965000D02*
X28800000Y-24615000D01*
G75*
G02*
X28975000Y-24440000I175000J0D01*
G01*
X30675000Y-24440000D01*
G75*
G02*
X30850000Y-24615000I0J-175000D01*
G01*
X30850000Y-24965000D01*
G75*
G02*
X30675000Y-25140000I-175000J0D01*
G01*
X28975000Y-25140000D01*
G75*
G02*
X28800000Y-24965000I0J175000D01*
G01*
G37*
D10*
X37900000Y-31430000D03*
X37900000Y-28890000D03*
D11*
X37900000Y-26350000D03*
D12*
X26750000Y-36800000D03*
X24750000Y-37750000D03*
X24750000Y-35850000D03*
D10*
X22710000Y-26030000D03*
D11*
X22710000Y-23490000D03*
G36*
G01*
X30245000Y-36392544D02*
X30245000Y-37707456D01*
G75*
G02*
X29977456Y-37975000I-267544J0D01*
G01*
X28987544Y-37975000D01*
G75*
G02*
X28720000Y-37707456I0J267544D01*
G01*
X28720000Y-36392544D01*
G75*
G02*
X28987544Y-36125000I267544J0D01*
G01*
X29977456Y-36125000D01*
G75*
G02*
X30245000Y-36392544I0J-267544D01*
G01*
G37*
G36*
G01*
X33220000Y-36392544D02*
X33220000Y-37707456D01*
G75*
G02*
X32952456Y-37975000I-267544J0D01*
G01*
X31962544Y-37975000D01*
G75*
G02*
X31695000Y-37707456I0J267544D01*
G01*
X31695000Y-36392544D01*
G75*
G02*
X31962544Y-36125000I267544J0D01*
G01*
X32952456Y-36125000D01*
G75*
G02*
X33220000Y-36392544I0J-267544D01*
G01*
G37*
X22100000Y-36210000D03*
D13*
X27410000Y-33750000D03*
X27410000Y-30250000D03*
G36*
G01*
X34285000Y-23457456D02*
X34285000Y-22142544D01*
G75*
G02*
X34552544Y-21875000I267544J0D01*
G01*
X35542456Y-21875000D01*
G75*
G02*
X35810000Y-22142544I0J-267544D01*
G01*
X35810000Y-23457456D01*
G75*
G02*
X35542456Y-23725000I-267544J0D01*
G01*
X34552544Y-23725000D01*
G75*
G02*
X34285000Y-23457456I0J267544D01*
G01*
G37*
G36*
G01*
X31310000Y-23457456D02*
X31310000Y-22142544D01*
G75*
G02*
X31577544Y-21875000I267544J0D01*
G01*
X32567456Y-21875000D01*
G75*
G02*
X32835000Y-22142544I0J-267544D01*
G01*
X32835000Y-23457456D01*
G75*
G02*
X32567456Y-23725000I-267544J0D01*
G01*
X31577544Y-23725000D01*
G75*
G02*
X31310000Y-23457456I0J267544D01*
G01*
G37*
G36*
G01*
X24462544Y-32505000D02*
X25777456Y-32505000D01*
G75*
G02*
X26045000Y-32772544I0J-267544D01*
G01*
X26045000Y-33762456D01*
G75*
G02*
X25777456Y-34030000I-267544J0D01*
G01*
X24462544Y-34030000D01*
G75*
G02*
X24195000Y-33762456I0J267544D01*
G01*
X24195000Y-32772544D01*
G75*
G02*
X24462544Y-32505000I267544J0D01*
G01*
G37*
G36*
G01*
X24462544Y-29530000D02*
X25777456Y-29530000D01*
G75*
G02*
X26045000Y-29797544I0J-267544D01*
G01*
X26045000Y-30787456D01*
G75*
G02*
X25777456Y-31055000I-267544J0D01*
G01*
X24462544Y-31055000D01*
G75*
G02*
X24195000Y-30787456I0J267544D01*
G01*
X24195000Y-29797544D01*
G75*
G02*
X24462544Y-29530000I267544J0D01*
G01*
G37*
G36*
G01*
X28057456Y-23525000D02*
X26742544Y-23525000D01*
G75*
G02*
X26475000Y-23257456I0J267544D01*
G01*
X26475000Y-22267544D01*
G75*
G02*
X26742544Y-22000000I267544J0D01*
G01*
X28057456Y-22000000D01*
G75*
G02*
X28325000Y-22267544I0J-267544D01*
G01*
X28325000Y-23257456D01*
G75*
G02*
X28057456Y-23525000I-267544J0D01*
G01*
G37*
G36*
G01*
X28057456Y-26500000D02*
X26742544Y-26500000D01*
G75*
G02*
X26475000Y-26232456I0J267544D01*
G01*
X26475000Y-25242544D01*
G75*
G02*
X26742544Y-24975000I267544J0D01*
G01*
X28057456Y-24975000D01*
G75*
G02*
X28325000Y-25242544I0J-267544D01*
G01*
X28325000Y-26232456D01*
G75*
G02*
X28057456Y-26500000I-267544J0D01*
G01*
G37*
D10*
X37820000Y-35050000D03*
D11*
X35280000Y-35050000D03*
G36*
G01*
X22152544Y-32495000D02*
X23467456Y-32495000D01*
G75*
G02*
X23735000Y-32762544I0J-267544D01*
G01*
X23735000Y-33752456D01*
G75*
G02*
X23467456Y-34020000I-267544J0D01*
G01*
X22152544Y-34020000D01*
G75*
G02*
X21885000Y-33752456I0J267544D01*
G01*
X21885000Y-32762544D01*
G75*
G02*
X22152544Y-32495000I267544J0D01*
G01*
G37*
G36*
G01*
X22152544Y-29520000D02*
X23467456Y-29520000D01*
G75*
G02*
X23735000Y-29787544I0J-267544D01*
G01*
X23735000Y-30777456D01*
G75*
G02*
X23467456Y-31045000I-267544J0D01*
G01*
X22152544Y-31045000D01*
G75*
G02*
X21885000Y-30777456I0J267544D01*
G01*
X21885000Y-29787544D01*
G75*
G02*
X22152544Y-29520000I267544J0D01*
G01*
G37*
D14*
X26160000Y-27988207D03*
X29960000Y-34570000D03*
M02*
