G04 #@! TF.GenerationSoftware,KiCad,Pcbnew,(5.1.6)-1*
G04 #@! TF.CreationDate,2021-07-12T15:37:41+03:00*
G04 #@! TF.ProjectId,detector,64657465-6374-46f7-922e-6b696361645f,rev?*
G04 #@! TF.SameCoordinates,Original*
G04 #@! TF.FileFunction,Copper,L2,Bot*
G04 #@! TF.FilePolarity,Positive*
%FSLAX46Y46*%
G04 Gerber Fmt 4.6, Leading zero omitted, Abs format (unit mm)*
G04 Created by KiCad (PCBNEW (5.1.6)-1) date 2021-07-12 15:37:42*
%MOMM*%
%LPD*%
G01*
G04 APERTURE LIST*
G04 #@! TA.AperFunction,ComponentPad*
%ADD10O,1.700000X1.700000*%
G04 #@! TD*
G04 #@! TA.AperFunction,ComponentPad*
%ADD11R,1.700000X1.700000*%
G04 #@! TD*
G04 #@! TA.AperFunction,ComponentPad*
%ADD12C,2.000000*%
G04 #@! TD*
G04 #@! TA.AperFunction,ViaPad*
%ADD13C,1.000000*%
G04 #@! TD*
G04 #@! TA.AperFunction,Conductor*
%ADD14C,0.770000*%
G04 #@! TD*
G04 #@! TA.AperFunction,Conductor*
%ADD15C,0.500000*%
G04 #@! TD*
G04 #@! TA.AperFunction,Conductor*
%ADD16C,0.550000*%
G04 #@! TD*
G04 APERTURE END LIST*
G04 #@! TA.AperFunction,SMDPad,CuDef*
G36*
G01*
X36125000Y-29925000D02*
X34875000Y-29925000D01*
G75*
G02*
X34625000Y-29675000I0J250000D01*
G01*
X34625000Y-28750000D01*
G75*
G02*
X34875000Y-28500000I250000J0D01*
G01*
X36125000Y-28500000D01*
G75*
G02*
X36375000Y-28750000I0J-250000D01*
G01*
X36375000Y-29675000D01*
G75*
G02*
X36125000Y-29925000I-250000J0D01*
G01*
G37*
G04 #@! TD.AperFunction*
G04 #@! TA.AperFunction,SMDPad,CuDef*
G36*
G01*
X36125000Y-32900000D02*
X34875000Y-32900000D01*
G75*
G02*
X34625000Y-32650000I0J250000D01*
G01*
X34625000Y-31725000D01*
G75*
G02*
X34875000Y-31475000I250000J0D01*
G01*
X36125000Y-31475000D01*
G75*
G02*
X36375000Y-31725000I0J-250000D01*
G01*
X36375000Y-32650000D01*
G75*
G02*
X36125000Y-32900000I-250000J0D01*
G01*
G37*
G04 #@! TD.AperFunction*
D10*
X37900000Y-31430000D03*
X37900000Y-28890000D03*
D11*
X37900000Y-26350000D03*
D10*
X22710000Y-26030000D03*
D11*
X22710000Y-23490000D03*
X22100000Y-36210000D03*
G04 #@! TA.AperFunction,SMDPad,CuDef*
G36*
G01*
X34995000Y-38225000D02*
X34995000Y-36975000D01*
G75*
G02*
X35245000Y-36725000I250000J0D01*
G01*
X36170000Y-36725000D01*
G75*
G02*
X36420000Y-36975000I0J-250000D01*
G01*
X36420000Y-38225000D01*
G75*
G02*
X36170000Y-38475000I-250000J0D01*
G01*
X35245000Y-38475000D01*
G75*
G02*
X34995000Y-38225000I0J250000D01*
G01*
G37*
G04 #@! TD.AperFunction*
G04 #@! TA.AperFunction,SMDPad,CuDef*
G36*
G01*
X32020000Y-38225000D02*
X32020000Y-36975000D01*
G75*
G02*
X32270000Y-36725000I250000J0D01*
G01*
X33195000Y-36725000D01*
G75*
G02*
X33445000Y-36975000I0J-250000D01*
G01*
X33445000Y-38225000D01*
G75*
G02*
X33195000Y-38475000I-250000J0D01*
G01*
X32270000Y-38475000D01*
G75*
G02*
X32020000Y-38225000I0J250000D01*
G01*
G37*
G04 #@! TD.AperFunction*
G04 #@! TA.AperFunction,SMDPad,CuDef*
G36*
G01*
X33636066Y-26499949D02*
X34519949Y-25616065D01*
G75*
G02*
X34873503Y-25616065I176777J-176777D01*
G01*
X35527577Y-26270139D01*
G75*
G02*
X35527577Y-26623693I-176777J-176777D01*
G01*
X34643693Y-27507577D01*
G75*
G02*
X34290139Y-27507577I-176777J176777D01*
G01*
X33636065Y-26853503D01*
G75*
G02*
X33636065Y-26499949I176777J176777D01*
G01*
G37*
G04 #@! TD.AperFunction*
G04 #@! TA.AperFunction,SMDPad,CuDef*
G36*
G01*
X31532424Y-24396307D02*
X32416307Y-23512423D01*
G75*
G02*
X32769861Y-23512423I176777J-176777D01*
G01*
X33423935Y-24166497D01*
G75*
G02*
X33423935Y-24520051I-176777J-176777D01*
G01*
X32540051Y-25403935D01*
G75*
G02*
X32186497Y-25403935I-176777J176777D01*
G01*
X31532423Y-24749861D01*
G75*
G02*
X31532423Y-24396307I176777J176777D01*
G01*
G37*
G04 #@! TD.AperFunction*
G04 #@! TA.AperFunction,SMDPad,CuDef*
G36*
G01*
X29375000Y-23415000D02*
X29375000Y-22165000D01*
G75*
G02*
X29625000Y-21915000I250000J0D01*
G01*
X30550000Y-21915000D01*
G75*
G02*
X30800000Y-22165000I0J-250000D01*
G01*
X30800000Y-23415000D01*
G75*
G02*
X30550000Y-23665000I-250000J0D01*
G01*
X29625000Y-23665000D01*
G75*
G02*
X29375000Y-23415000I0J250000D01*
G01*
G37*
G04 #@! TD.AperFunction*
G04 #@! TA.AperFunction,SMDPad,CuDef*
G36*
G01*
X26400000Y-23415000D02*
X26400000Y-22165000D01*
G75*
G02*
X26650000Y-21915000I250000J0D01*
G01*
X27575000Y-21915000D01*
G75*
G02*
X27825000Y-22165000I0J-250000D01*
G01*
X27825000Y-23415000D01*
G75*
G02*
X27575000Y-23665000I-250000J0D01*
G01*
X26650000Y-23665000D01*
G75*
G02*
X26400000Y-23415000I0J250000D01*
G01*
G37*
G04 #@! TD.AperFunction*
D10*
X37820000Y-35050000D03*
D11*
X35280000Y-35050000D03*
D12*
X26160000Y-27988207D03*
X29960000Y-34570000D03*
D13*
X32350000Y-30180000D03*
X32830000Y-27490000D03*
X27960028Y-28699972D03*
X25350000Y-25810000D03*
X25910000Y-24320000D03*
X33610000Y-22960000D03*
X37420000Y-37970000D03*
X28220000Y-35370000D03*
D14*
X37154365Y-27065635D02*
X37880000Y-26340000D01*
X35085635Y-27065635D02*
X37154365Y-27065635D01*
X34581821Y-26561821D02*
X35085635Y-27065635D01*
X26211596Y-27988207D02*
X26160000Y-27988207D01*
X27894804Y-26304999D02*
X26211596Y-27988207D01*
X34324999Y-26304999D02*
X27894804Y-26304999D01*
X34581821Y-26561821D02*
X34324999Y-26304999D01*
X34581821Y-28294321D02*
X35500000Y-29212500D01*
X34581821Y-26561821D02*
X34581821Y-28294321D01*
D15*
X32350000Y-27970000D02*
X32830000Y-27490000D01*
X32350000Y-30180000D02*
X32350000Y-27970000D01*
D14*
X31530055Y-32269999D02*
X27960028Y-28699972D01*
X37880000Y-31420000D02*
X37030001Y-32269999D01*
X37030001Y-32269999D02*
X31530055Y-32269999D01*
D15*
X27067500Y-25810000D02*
X25350000Y-25810000D01*
X30087500Y-22790000D02*
X27067500Y-25810000D01*
X27112500Y-22790000D02*
X25910000Y-23992500D01*
X25910000Y-23992500D02*
X25910000Y-24320000D01*
X32478179Y-24458179D02*
X33610000Y-23326358D01*
X33610000Y-23326358D02*
X33610000Y-22960000D01*
D14*
X36077500Y-37970000D02*
X35707500Y-37600000D01*
X37420000Y-37970000D02*
X36077500Y-37970000D01*
D15*
X30695998Y-37600000D02*
X32732500Y-37600000D01*
X23559999Y-26879999D02*
X23559999Y-30464001D01*
X22710000Y-26030000D02*
X23559999Y-26879999D01*
X28327999Y-35262001D02*
X28220000Y-35370000D01*
X28327999Y-35232001D02*
X28327999Y-35262001D01*
X28327999Y-35232001D02*
X30695998Y-37600000D01*
X23559999Y-30464001D02*
X28327999Y-35232001D01*
D16*
G36*
X25961724Y-21705109D02*
G01*
X25885229Y-21848222D01*
X25838124Y-22003508D01*
X25822218Y-22165000D01*
X25822218Y-22913557D01*
X25355296Y-23380479D01*
X25323815Y-23406315D01*
X25301155Y-23433926D01*
X25224728Y-23484993D01*
X25074993Y-23634728D01*
X24957348Y-23810797D01*
X24876312Y-24006434D01*
X24835000Y-24214122D01*
X24835000Y-24425878D01*
X24876312Y-24633566D01*
X24950230Y-24812019D01*
X24840797Y-24857348D01*
X24664728Y-24974993D01*
X24514993Y-25124728D01*
X24397348Y-25300797D01*
X24316312Y-25496434D01*
X24275000Y-25704122D01*
X24275000Y-25915878D01*
X24316312Y-26123566D01*
X24397348Y-26319203D01*
X24514993Y-26495272D01*
X24664728Y-26645007D01*
X24840797Y-26762652D01*
X25036434Y-26843688D01*
X25070380Y-26850440D01*
X24936617Y-26984203D01*
X24764253Y-27242165D01*
X24645526Y-27528796D01*
X24585000Y-27833083D01*
X24585000Y-28143331D01*
X24645526Y-28447618D01*
X24764253Y-28734249D01*
X24936617Y-28992211D01*
X25155996Y-29211590D01*
X25413958Y-29383954D01*
X25700589Y-29502681D01*
X26004876Y-29563207D01*
X26315124Y-29563207D01*
X26619411Y-29502681D01*
X26906042Y-29383954D01*
X27164004Y-29211590D01*
X27383383Y-28992211D01*
X27555747Y-28734249D01*
X27674474Y-28447618D01*
X27735000Y-28143331D01*
X27735000Y-27833083D01*
X27733235Y-27824212D01*
X28292449Y-27264999D01*
X31778695Y-27264999D01*
X31755000Y-27384122D01*
X31755000Y-27394557D01*
X31660720Y-27509437D01*
X31611478Y-27601563D01*
X31584113Y-27652759D01*
X31536938Y-27808272D01*
X31521010Y-27970000D01*
X31525001Y-28010523D01*
X31525000Y-29484721D01*
X31514993Y-29494728D01*
X31397348Y-29670797D01*
X31316312Y-29866434D01*
X31275000Y-30074122D01*
X31275000Y-30285878D01*
X31316312Y-30493566D01*
X31397348Y-30689203D01*
X31514993Y-30865272D01*
X31664728Y-31015007D01*
X31840797Y-31132652D01*
X32036434Y-31213688D01*
X32244122Y-31255000D01*
X32455878Y-31255000D01*
X32663566Y-31213688D01*
X32859203Y-31132652D01*
X33035272Y-31015007D01*
X33185007Y-30865272D01*
X33302652Y-30689203D01*
X33383688Y-30493566D01*
X33425000Y-30285878D01*
X33425000Y-30074122D01*
X33383688Y-29866434D01*
X33302652Y-29670797D01*
X33185007Y-29494728D01*
X33175000Y-29484721D01*
X33175000Y-28510668D01*
X33339203Y-28442652D01*
X33515272Y-28325007D01*
X33621822Y-28218457D01*
X33621822Y-28247159D01*
X33617177Y-28294321D01*
X33635712Y-28482513D01*
X33690605Y-28663474D01*
X33779748Y-28830249D01*
X33865155Y-28934317D01*
X33899715Y-28976428D01*
X33936347Y-29006491D01*
X34047218Y-29117362D01*
X34047218Y-29675000D01*
X34063124Y-29836492D01*
X34110229Y-29991778D01*
X34186724Y-30134891D01*
X34289670Y-30260330D01*
X34415109Y-30363276D01*
X34558222Y-30439771D01*
X34713508Y-30486876D01*
X34875000Y-30502782D01*
X36125000Y-30502782D01*
X36286492Y-30486876D01*
X36441778Y-30439771D01*
X36584891Y-30363276D01*
X36710330Y-30260330D01*
X36813276Y-30134891D01*
X36889771Y-29991778D01*
X36912289Y-29917544D01*
X36991615Y-29996870D01*
X37225009Y-30152819D01*
X37484343Y-30260238D01*
X37759650Y-30315000D01*
X38040350Y-30315000D01*
X38315657Y-30260238D01*
X38574991Y-30152819D01*
X38808385Y-29996870D01*
X39006870Y-29798385D01*
X39162819Y-29564991D01*
X39270238Y-29305657D01*
X39325000Y-29030350D01*
X39325000Y-28749650D01*
X39270238Y-28474343D01*
X39162819Y-28215009D01*
X39006870Y-27981615D01*
X38808385Y-27783130D01*
X38793909Y-27773457D01*
X38862720Y-27766680D01*
X38971108Y-27733801D01*
X39070998Y-27680408D01*
X39158554Y-27608554D01*
X39230408Y-27520998D01*
X39283801Y-27421108D01*
X39316680Y-27312720D01*
X39327782Y-27200000D01*
X39327782Y-25500000D01*
X39316680Y-25387280D01*
X39283801Y-25278892D01*
X39230408Y-25179002D01*
X39158554Y-25091446D01*
X39070998Y-25019592D01*
X38971108Y-24966199D01*
X38862720Y-24933320D01*
X38750000Y-24922218D01*
X37050000Y-24922218D01*
X36937280Y-24933320D01*
X36828892Y-24966199D01*
X36729002Y-25019592D01*
X36641446Y-25091446D01*
X36569592Y-25179002D01*
X36516199Y-25278892D01*
X36483320Y-25387280D01*
X36472218Y-25500000D01*
X36472218Y-26105635D01*
X36102474Y-26105635D01*
X36039076Y-25987025D01*
X35936130Y-25861586D01*
X35282056Y-25207512D01*
X35156617Y-25104566D01*
X35013504Y-25028071D01*
X34858218Y-24980966D01*
X34696726Y-24965060D01*
X34535234Y-24980966D01*
X34379948Y-25028071D01*
X34236835Y-25104566D01*
X34111396Y-25207512D01*
X33973909Y-25344999D01*
X33416093Y-25344999D01*
X33832488Y-24928604D01*
X33935434Y-24803165D01*
X34011929Y-24660052D01*
X34059034Y-24504766D01*
X34074940Y-24343274D01*
X34059034Y-24181782D01*
X34026978Y-24076107D01*
X34164716Y-23938369D01*
X34196185Y-23912543D01*
X34222012Y-23881073D01*
X34222016Y-23881069D01*
X34279686Y-23810797D01*
X34289455Y-23798894D01*
X34295272Y-23795007D01*
X34445007Y-23645272D01*
X34562652Y-23469203D01*
X34643688Y-23273566D01*
X34685000Y-23065878D01*
X34685000Y-22854122D01*
X34643688Y-22646434D01*
X34562652Y-22450797D01*
X34445007Y-22274728D01*
X34295272Y-22124993D01*
X34119203Y-22007348D01*
X33923566Y-21926312D01*
X33715878Y-21885000D01*
X33504122Y-21885000D01*
X33296434Y-21926312D01*
X33100797Y-22007348D01*
X32924728Y-22124993D01*
X32774993Y-22274728D01*
X32657348Y-22450797D01*
X32576312Y-22646434D01*
X32535000Y-22854122D01*
X32535000Y-22867139D01*
X32431592Y-22877324D01*
X32276306Y-22924429D01*
X32133193Y-23000924D01*
X32007754Y-23103870D01*
X31240048Y-23871576D01*
X31314771Y-23731778D01*
X31361876Y-23576492D01*
X31377782Y-23415000D01*
X31377782Y-22165000D01*
X31361876Y-22003508D01*
X31314771Y-21848222D01*
X31238276Y-21705109D01*
X31172532Y-21625000D01*
X39875000Y-21625000D01*
X39875001Y-39375000D01*
X20125000Y-39375000D01*
X20125000Y-35360000D01*
X20672218Y-35360000D01*
X20672218Y-37060000D01*
X20683320Y-37172720D01*
X20716199Y-37281108D01*
X20769592Y-37380998D01*
X20841446Y-37468554D01*
X20929002Y-37540408D01*
X21028892Y-37593801D01*
X21137280Y-37626680D01*
X21250000Y-37637782D01*
X22950000Y-37637782D01*
X23062720Y-37626680D01*
X23171108Y-37593801D01*
X23270998Y-37540408D01*
X23358554Y-37468554D01*
X23430408Y-37380998D01*
X23483801Y-37281108D01*
X23516680Y-37172720D01*
X23527782Y-37060000D01*
X23527782Y-35360000D01*
X23516680Y-35247280D01*
X23483801Y-35138892D01*
X23430408Y-35039002D01*
X23358554Y-34951446D01*
X23270998Y-34879592D01*
X23171108Y-34826199D01*
X23062720Y-34793320D01*
X22950000Y-34782218D01*
X21250000Y-34782218D01*
X21137280Y-34793320D01*
X21028892Y-34826199D01*
X20929002Y-34879592D01*
X20841446Y-34951446D01*
X20769592Y-35039002D01*
X20716199Y-35138892D01*
X20683320Y-35247280D01*
X20672218Y-35360000D01*
X20125000Y-35360000D01*
X20125000Y-22640000D01*
X21282218Y-22640000D01*
X21282218Y-24340000D01*
X21293320Y-24452720D01*
X21326199Y-24561108D01*
X21379592Y-24660998D01*
X21451446Y-24748554D01*
X21539002Y-24820408D01*
X21638892Y-24873801D01*
X21747280Y-24906680D01*
X21816091Y-24913457D01*
X21801615Y-24923130D01*
X21603130Y-25121615D01*
X21447181Y-25355009D01*
X21339762Y-25614343D01*
X21285000Y-25889650D01*
X21285000Y-26170350D01*
X21339762Y-26445657D01*
X21447181Y-26704991D01*
X21603130Y-26938385D01*
X21801615Y-27136870D01*
X22035009Y-27292819D01*
X22294343Y-27400238D01*
X22569650Y-27455000D01*
X22734999Y-27455000D01*
X22735000Y-30423478D01*
X22731009Y-30464001D01*
X22746937Y-30625729D01*
X22794112Y-30781242D01*
X22870719Y-30924564D01*
X22973815Y-31050186D01*
X23005290Y-31076017D01*
X27153029Y-35223757D01*
X27145000Y-35264122D01*
X27145000Y-35475878D01*
X27186312Y-35683566D01*
X27267348Y-35879203D01*
X27384993Y-36055272D01*
X27534728Y-36205007D01*
X27710797Y-36322652D01*
X27906434Y-36403688D01*
X28114122Y-36445000D01*
X28325878Y-36445000D01*
X28366243Y-36436971D01*
X30083982Y-38154710D01*
X30109813Y-38186185D01*
X30235435Y-38289281D01*
X30378757Y-38365888D01*
X30487095Y-38398752D01*
X30534269Y-38413062D01*
X30549868Y-38414598D01*
X30655477Y-38425000D01*
X30655484Y-38425000D01*
X30695997Y-38428990D01*
X30736510Y-38425000D01*
X31469805Y-38425000D01*
X31505229Y-38541778D01*
X31581724Y-38684891D01*
X31684670Y-38810330D01*
X31810109Y-38913276D01*
X31953222Y-38989771D01*
X32108508Y-39036876D01*
X32270000Y-39052782D01*
X33195000Y-39052782D01*
X33356492Y-39036876D01*
X33511778Y-38989771D01*
X33654891Y-38913276D01*
X33780330Y-38810330D01*
X33883276Y-38684891D01*
X33959771Y-38541778D01*
X34006876Y-38386492D01*
X34022782Y-38225000D01*
X34022782Y-36975000D01*
X34006876Y-36813508D01*
X33959771Y-36658222D01*
X33883276Y-36515109D01*
X33780330Y-36389670D01*
X33654891Y-36286724D01*
X33511778Y-36210229D01*
X33356492Y-36163124D01*
X33195000Y-36147218D01*
X32270000Y-36147218D01*
X32108508Y-36163124D01*
X31953222Y-36210229D01*
X31810109Y-36286724D01*
X31684670Y-36389670D01*
X31581724Y-36515109D01*
X31505229Y-36658222D01*
X31469805Y-36775000D01*
X31037724Y-36775000D01*
X30359179Y-36096455D01*
X30419411Y-36084474D01*
X30706042Y-35965747D01*
X30964004Y-35793383D01*
X31183383Y-35574004D01*
X31355747Y-35316042D01*
X31474474Y-35029411D01*
X31535000Y-34725124D01*
X31535000Y-34414876D01*
X31492259Y-34200000D01*
X33852218Y-34200000D01*
X33852218Y-35900000D01*
X33863320Y-36012720D01*
X33896199Y-36121108D01*
X33949592Y-36220998D01*
X34021446Y-36308554D01*
X34109002Y-36380408D01*
X34208892Y-36433801D01*
X34317280Y-36466680D01*
X34430000Y-36477782D01*
X34587358Y-36477782D01*
X34556724Y-36515109D01*
X34480229Y-36658222D01*
X34433124Y-36813508D01*
X34417218Y-36975000D01*
X34417218Y-38225000D01*
X34433124Y-38386492D01*
X34480229Y-38541778D01*
X34556724Y-38684891D01*
X34659670Y-38810330D01*
X34785109Y-38913276D01*
X34928222Y-38989771D01*
X35083508Y-39036876D01*
X35245000Y-39052782D01*
X36170000Y-39052782D01*
X36331492Y-39036876D01*
X36486778Y-38989771D01*
X36598602Y-38930000D01*
X36928537Y-38930000D01*
X37106434Y-39003688D01*
X37314122Y-39045000D01*
X37525878Y-39045000D01*
X37733566Y-39003688D01*
X37929203Y-38922652D01*
X38105272Y-38805007D01*
X38255007Y-38655272D01*
X38372652Y-38479203D01*
X38453688Y-38283566D01*
X38495000Y-38075878D01*
X38495000Y-37864122D01*
X38453688Y-37656434D01*
X38372652Y-37460797D01*
X38255007Y-37284728D01*
X38105272Y-37134993D01*
X37929203Y-37017348D01*
X37733566Y-36936312D01*
X37525878Y-36895000D01*
X37314122Y-36895000D01*
X37106434Y-36936312D01*
X36997782Y-36981317D01*
X36997782Y-36975000D01*
X36981876Y-36813508D01*
X36934771Y-36658222D01*
X36858276Y-36515109D01*
X36755330Y-36389670D01*
X36629891Y-36286724D01*
X36578856Y-36259445D01*
X36610408Y-36220998D01*
X36663801Y-36121108D01*
X36696680Y-36012720D01*
X36707782Y-35900000D01*
X36707782Y-34200000D01*
X36696680Y-34087280D01*
X36663801Y-33978892D01*
X36610408Y-33879002D01*
X36538554Y-33791446D01*
X36450998Y-33719592D01*
X36351108Y-33666199D01*
X36242720Y-33633320D01*
X36130000Y-33622218D01*
X34430000Y-33622218D01*
X34317280Y-33633320D01*
X34208892Y-33666199D01*
X34109002Y-33719592D01*
X34021446Y-33791446D01*
X33949592Y-33879002D01*
X33896199Y-33978892D01*
X33863320Y-34087280D01*
X33852218Y-34200000D01*
X31492259Y-34200000D01*
X31474474Y-34110589D01*
X31355747Y-33823958D01*
X31183383Y-33565996D01*
X30964004Y-33346617D01*
X30706042Y-33174253D01*
X30419411Y-33055526D01*
X30115124Y-32995000D01*
X29804876Y-32995000D01*
X29500589Y-33055526D01*
X29213958Y-33174253D01*
X28955996Y-33346617D01*
X28736617Y-33565996D01*
X28564253Y-33823958D01*
X28445526Y-34110589D01*
X28433545Y-34170821D01*
X24384999Y-30122276D01*
X24384999Y-26920511D01*
X24388989Y-26879998D01*
X24384999Y-26839485D01*
X24384999Y-26839478D01*
X24373061Y-26718271D01*
X24370296Y-26709154D01*
X24350837Y-26645007D01*
X24325887Y-26562758D01*
X24249280Y-26419436D01*
X24146184Y-26293814D01*
X24115457Y-26268597D01*
X24135000Y-26170350D01*
X24135000Y-25889650D01*
X24080238Y-25614343D01*
X23972819Y-25355009D01*
X23816870Y-25121615D01*
X23618385Y-24923130D01*
X23603909Y-24913457D01*
X23672720Y-24906680D01*
X23781108Y-24873801D01*
X23880998Y-24820408D01*
X23968554Y-24748554D01*
X24040408Y-24660998D01*
X24093801Y-24561108D01*
X24126680Y-24452720D01*
X24137782Y-24340000D01*
X24137782Y-22640000D01*
X24126680Y-22527280D01*
X24093801Y-22418892D01*
X24040408Y-22319002D01*
X23968554Y-22231446D01*
X23880998Y-22159592D01*
X23781108Y-22106199D01*
X23672720Y-22073320D01*
X23560000Y-22062218D01*
X21860000Y-22062218D01*
X21747280Y-22073320D01*
X21638892Y-22106199D01*
X21539002Y-22159592D01*
X21451446Y-22231446D01*
X21379592Y-22319002D01*
X21326199Y-22418892D01*
X21293320Y-22527280D01*
X21282218Y-22640000D01*
X20125000Y-22640000D01*
X20125000Y-21625000D01*
X26027468Y-21625000D01*
X25961724Y-21705109D01*
G37*
X25961724Y-21705109D02*
X25885229Y-21848222D01*
X25838124Y-22003508D01*
X25822218Y-22165000D01*
X25822218Y-22913557D01*
X25355296Y-23380479D01*
X25323815Y-23406315D01*
X25301155Y-23433926D01*
X25224728Y-23484993D01*
X25074993Y-23634728D01*
X24957348Y-23810797D01*
X24876312Y-24006434D01*
X24835000Y-24214122D01*
X24835000Y-24425878D01*
X24876312Y-24633566D01*
X24950230Y-24812019D01*
X24840797Y-24857348D01*
X24664728Y-24974993D01*
X24514993Y-25124728D01*
X24397348Y-25300797D01*
X24316312Y-25496434D01*
X24275000Y-25704122D01*
X24275000Y-25915878D01*
X24316312Y-26123566D01*
X24397348Y-26319203D01*
X24514993Y-26495272D01*
X24664728Y-26645007D01*
X24840797Y-26762652D01*
X25036434Y-26843688D01*
X25070380Y-26850440D01*
X24936617Y-26984203D01*
X24764253Y-27242165D01*
X24645526Y-27528796D01*
X24585000Y-27833083D01*
X24585000Y-28143331D01*
X24645526Y-28447618D01*
X24764253Y-28734249D01*
X24936617Y-28992211D01*
X25155996Y-29211590D01*
X25413958Y-29383954D01*
X25700589Y-29502681D01*
X26004876Y-29563207D01*
X26315124Y-29563207D01*
X26619411Y-29502681D01*
X26906042Y-29383954D01*
X27164004Y-29211590D01*
X27383383Y-28992211D01*
X27555747Y-28734249D01*
X27674474Y-28447618D01*
X27735000Y-28143331D01*
X27735000Y-27833083D01*
X27733235Y-27824212D01*
X28292449Y-27264999D01*
X31778695Y-27264999D01*
X31755000Y-27384122D01*
X31755000Y-27394557D01*
X31660720Y-27509437D01*
X31611478Y-27601563D01*
X31584113Y-27652759D01*
X31536938Y-27808272D01*
X31521010Y-27970000D01*
X31525001Y-28010523D01*
X31525000Y-29484721D01*
X31514993Y-29494728D01*
X31397348Y-29670797D01*
X31316312Y-29866434D01*
X31275000Y-30074122D01*
X31275000Y-30285878D01*
X31316312Y-30493566D01*
X31397348Y-30689203D01*
X31514993Y-30865272D01*
X31664728Y-31015007D01*
X31840797Y-31132652D01*
X32036434Y-31213688D01*
X32244122Y-31255000D01*
X32455878Y-31255000D01*
X32663566Y-31213688D01*
X32859203Y-31132652D01*
X33035272Y-31015007D01*
X33185007Y-30865272D01*
X33302652Y-30689203D01*
X33383688Y-30493566D01*
X33425000Y-30285878D01*
X33425000Y-30074122D01*
X33383688Y-29866434D01*
X33302652Y-29670797D01*
X33185007Y-29494728D01*
X33175000Y-29484721D01*
X33175000Y-28510668D01*
X33339203Y-28442652D01*
X33515272Y-28325007D01*
X33621822Y-28218457D01*
X33621822Y-28247159D01*
X33617177Y-28294321D01*
X33635712Y-28482513D01*
X33690605Y-28663474D01*
X33779748Y-28830249D01*
X33865155Y-28934317D01*
X33899715Y-28976428D01*
X33936347Y-29006491D01*
X34047218Y-29117362D01*
X34047218Y-29675000D01*
X34063124Y-29836492D01*
X34110229Y-29991778D01*
X34186724Y-30134891D01*
X34289670Y-30260330D01*
X34415109Y-30363276D01*
X34558222Y-30439771D01*
X34713508Y-30486876D01*
X34875000Y-30502782D01*
X36125000Y-30502782D01*
X36286492Y-30486876D01*
X36441778Y-30439771D01*
X36584891Y-30363276D01*
X36710330Y-30260330D01*
X36813276Y-30134891D01*
X36889771Y-29991778D01*
X36912289Y-29917544D01*
X36991615Y-29996870D01*
X37225009Y-30152819D01*
X37484343Y-30260238D01*
X37759650Y-30315000D01*
X38040350Y-30315000D01*
X38315657Y-30260238D01*
X38574991Y-30152819D01*
X38808385Y-29996870D01*
X39006870Y-29798385D01*
X39162819Y-29564991D01*
X39270238Y-29305657D01*
X39325000Y-29030350D01*
X39325000Y-28749650D01*
X39270238Y-28474343D01*
X39162819Y-28215009D01*
X39006870Y-27981615D01*
X38808385Y-27783130D01*
X38793909Y-27773457D01*
X38862720Y-27766680D01*
X38971108Y-27733801D01*
X39070998Y-27680408D01*
X39158554Y-27608554D01*
X39230408Y-27520998D01*
X39283801Y-27421108D01*
X39316680Y-27312720D01*
X39327782Y-27200000D01*
X39327782Y-25500000D01*
X39316680Y-25387280D01*
X39283801Y-25278892D01*
X39230408Y-25179002D01*
X39158554Y-25091446D01*
X39070998Y-25019592D01*
X38971108Y-24966199D01*
X38862720Y-24933320D01*
X38750000Y-24922218D01*
X37050000Y-24922218D01*
X36937280Y-24933320D01*
X36828892Y-24966199D01*
X36729002Y-25019592D01*
X36641446Y-25091446D01*
X36569592Y-25179002D01*
X36516199Y-25278892D01*
X36483320Y-25387280D01*
X36472218Y-25500000D01*
X36472218Y-26105635D01*
X36102474Y-26105635D01*
X36039076Y-25987025D01*
X35936130Y-25861586D01*
X35282056Y-25207512D01*
X35156617Y-25104566D01*
X35013504Y-25028071D01*
X34858218Y-24980966D01*
X34696726Y-24965060D01*
X34535234Y-24980966D01*
X34379948Y-25028071D01*
X34236835Y-25104566D01*
X34111396Y-25207512D01*
X33973909Y-25344999D01*
X33416093Y-25344999D01*
X33832488Y-24928604D01*
X33935434Y-24803165D01*
X34011929Y-24660052D01*
X34059034Y-24504766D01*
X34074940Y-24343274D01*
X34059034Y-24181782D01*
X34026978Y-24076107D01*
X34164716Y-23938369D01*
X34196185Y-23912543D01*
X34222012Y-23881073D01*
X34222016Y-23881069D01*
X34279686Y-23810797D01*
X34289455Y-23798894D01*
X34295272Y-23795007D01*
X34445007Y-23645272D01*
X34562652Y-23469203D01*
X34643688Y-23273566D01*
X34685000Y-23065878D01*
X34685000Y-22854122D01*
X34643688Y-22646434D01*
X34562652Y-22450797D01*
X34445007Y-22274728D01*
X34295272Y-22124993D01*
X34119203Y-22007348D01*
X33923566Y-21926312D01*
X33715878Y-21885000D01*
X33504122Y-21885000D01*
X33296434Y-21926312D01*
X33100797Y-22007348D01*
X32924728Y-22124993D01*
X32774993Y-22274728D01*
X32657348Y-22450797D01*
X32576312Y-22646434D01*
X32535000Y-22854122D01*
X32535000Y-22867139D01*
X32431592Y-22877324D01*
X32276306Y-22924429D01*
X32133193Y-23000924D01*
X32007754Y-23103870D01*
X31240048Y-23871576D01*
X31314771Y-23731778D01*
X31361876Y-23576492D01*
X31377782Y-23415000D01*
X31377782Y-22165000D01*
X31361876Y-22003508D01*
X31314771Y-21848222D01*
X31238276Y-21705109D01*
X31172532Y-21625000D01*
X39875000Y-21625000D01*
X39875001Y-39375000D01*
X20125000Y-39375000D01*
X20125000Y-35360000D01*
X20672218Y-35360000D01*
X20672218Y-37060000D01*
X20683320Y-37172720D01*
X20716199Y-37281108D01*
X20769592Y-37380998D01*
X20841446Y-37468554D01*
X20929002Y-37540408D01*
X21028892Y-37593801D01*
X21137280Y-37626680D01*
X21250000Y-37637782D01*
X22950000Y-37637782D01*
X23062720Y-37626680D01*
X23171108Y-37593801D01*
X23270998Y-37540408D01*
X23358554Y-37468554D01*
X23430408Y-37380998D01*
X23483801Y-37281108D01*
X23516680Y-37172720D01*
X23527782Y-37060000D01*
X23527782Y-35360000D01*
X23516680Y-35247280D01*
X23483801Y-35138892D01*
X23430408Y-35039002D01*
X23358554Y-34951446D01*
X23270998Y-34879592D01*
X23171108Y-34826199D01*
X23062720Y-34793320D01*
X22950000Y-34782218D01*
X21250000Y-34782218D01*
X21137280Y-34793320D01*
X21028892Y-34826199D01*
X20929002Y-34879592D01*
X20841446Y-34951446D01*
X20769592Y-35039002D01*
X20716199Y-35138892D01*
X20683320Y-35247280D01*
X20672218Y-35360000D01*
X20125000Y-35360000D01*
X20125000Y-22640000D01*
X21282218Y-22640000D01*
X21282218Y-24340000D01*
X21293320Y-24452720D01*
X21326199Y-24561108D01*
X21379592Y-24660998D01*
X21451446Y-24748554D01*
X21539002Y-24820408D01*
X21638892Y-24873801D01*
X21747280Y-24906680D01*
X21816091Y-24913457D01*
X21801615Y-24923130D01*
X21603130Y-25121615D01*
X21447181Y-25355009D01*
X21339762Y-25614343D01*
X21285000Y-25889650D01*
X21285000Y-26170350D01*
X21339762Y-26445657D01*
X21447181Y-26704991D01*
X21603130Y-26938385D01*
X21801615Y-27136870D01*
X22035009Y-27292819D01*
X22294343Y-27400238D01*
X22569650Y-27455000D01*
X22734999Y-27455000D01*
X22735000Y-30423478D01*
X22731009Y-30464001D01*
X22746937Y-30625729D01*
X22794112Y-30781242D01*
X22870719Y-30924564D01*
X22973815Y-31050186D01*
X23005290Y-31076017D01*
X27153029Y-35223757D01*
X27145000Y-35264122D01*
X27145000Y-35475878D01*
X27186312Y-35683566D01*
X27267348Y-35879203D01*
X27384993Y-36055272D01*
X27534728Y-36205007D01*
X27710797Y-36322652D01*
X27906434Y-36403688D01*
X28114122Y-36445000D01*
X28325878Y-36445000D01*
X28366243Y-36436971D01*
X30083982Y-38154710D01*
X30109813Y-38186185D01*
X30235435Y-38289281D01*
X30378757Y-38365888D01*
X30487095Y-38398752D01*
X30534269Y-38413062D01*
X30549868Y-38414598D01*
X30655477Y-38425000D01*
X30655484Y-38425000D01*
X30695997Y-38428990D01*
X30736510Y-38425000D01*
X31469805Y-38425000D01*
X31505229Y-38541778D01*
X31581724Y-38684891D01*
X31684670Y-38810330D01*
X31810109Y-38913276D01*
X31953222Y-38989771D01*
X32108508Y-39036876D01*
X32270000Y-39052782D01*
X33195000Y-39052782D01*
X33356492Y-39036876D01*
X33511778Y-38989771D01*
X33654891Y-38913276D01*
X33780330Y-38810330D01*
X33883276Y-38684891D01*
X33959771Y-38541778D01*
X34006876Y-38386492D01*
X34022782Y-38225000D01*
X34022782Y-36975000D01*
X34006876Y-36813508D01*
X33959771Y-36658222D01*
X33883276Y-36515109D01*
X33780330Y-36389670D01*
X33654891Y-36286724D01*
X33511778Y-36210229D01*
X33356492Y-36163124D01*
X33195000Y-36147218D01*
X32270000Y-36147218D01*
X32108508Y-36163124D01*
X31953222Y-36210229D01*
X31810109Y-36286724D01*
X31684670Y-36389670D01*
X31581724Y-36515109D01*
X31505229Y-36658222D01*
X31469805Y-36775000D01*
X31037724Y-36775000D01*
X30359179Y-36096455D01*
X30419411Y-36084474D01*
X30706042Y-35965747D01*
X30964004Y-35793383D01*
X31183383Y-35574004D01*
X31355747Y-35316042D01*
X31474474Y-35029411D01*
X31535000Y-34725124D01*
X31535000Y-34414876D01*
X31492259Y-34200000D01*
X33852218Y-34200000D01*
X33852218Y-35900000D01*
X33863320Y-36012720D01*
X33896199Y-36121108D01*
X33949592Y-36220998D01*
X34021446Y-36308554D01*
X34109002Y-36380408D01*
X34208892Y-36433801D01*
X34317280Y-36466680D01*
X34430000Y-36477782D01*
X34587358Y-36477782D01*
X34556724Y-36515109D01*
X34480229Y-36658222D01*
X34433124Y-36813508D01*
X34417218Y-36975000D01*
X34417218Y-38225000D01*
X34433124Y-38386492D01*
X34480229Y-38541778D01*
X34556724Y-38684891D01*
X34659670Y-38810330D01*
X34785109Y-38913276D01*
X34928222Y-38989771D01*
X35083508Y-39036876D01*
X35245000Y-39052782D01*
X36170000Y-39052782D01*
X36331492Y-39036876D01*
X36486778Y-38989771D01*
X36598602Y-38930000D01*
X36928537Y-38930000D01*
X37106434Y-39003688D01*
X37314122Y-39045000D01*
X37525878Y-39045000D01*
X37733566Y-39003688D01*
X37929203Y-38922652D01*
X38105272Y-38805007D01*
X38255007Y-38655272D01*
X38372652Y-38479203D01*
X38453688Y-38283566D01*
X38495000Y-38075878D01*
X38495000Y-37864122D01*
X38453688Y-37656434D01*
X38372652Y-37460797D01*
X38255007Y-37284728D01*
X38105272Y-37134993D01*
X37929203Y-37017348D01*
X37733566Y-36936312D01*
X37525878Y-36895000D01*
X37314122Y-36895000D01*
X37106434Y-36936312D01*
X36997782Y-36981317D01*
X36997782Y-36975000D01*
X36981876Y-36813508D01*
X36934771Y-36658222D01*
X36858276Y-36515109D01*
X36755330Y-36389670D01*
X36629891Y-36286724D01*
X36578856Y-36259445D01*
X36610408Y-36220998D01*
X36663801Y-36121108D01*
X36696680Y-36012720D01*
X36707782Y-35900000D01*
X36707782Y-34200000D01*
X36696680Y-34087280D01*
X36663801Y-33978892D01*
X36610408Y-33879002D01*
X36538554Y-33791446D01*
X36450998Y-33719592D01*
X36351108Y-33666199D01*
X36242720Y-33633320D01*
X36130000Y-33622218D01*
X34430000Y-33622218D01*
X34317280Y-33633320D01*
X34208892Y-33666199D01*
X34109002Y-33719592D01*
X34021446Y-33791446D01*
X33949592Y-33879002D01*
X33896199Y-33978892D01*
X33863320Y-34087280D01*
X33852218Y-34200000D01*
X31492259Y-34200000D01*
X31474474Y-34110589D01*
X31355747Y-33823958D01*
X31183383Y-33565996D01*
X30964004Y-33346617D01*
X30706042Y-33174253D01*
X30419411Y-33055526D01*
X30115124Y-32995000D01*
X29804876Y-32995000D01*
X29500589Y-33055526D01*
X29213958Y-33174253D01*
X28955996Y-33346617D01*
X28736617Y-33565996D01*
X28564253Y-33823958D01*
X28445526Y-34110589D01*
X28433545Y-34170821D01*
X24384999Y-30122276D01*
X24384999Y-26920511D01*
X24388989Y-26879998D01*
X24384999Y-26839485D01*
X24384999Y-26839478D01*
X24373061Y-26718271D01*
X24370296Y-26709154D01*
X24350837Y-26645007D01*
X24325887Y-26562758D01*
X24249280Y-26419436D01*
X24146184Y-26293814D01*
X24115457Y-26268597D01*
X24135000Y-26170350D01*
X24135000Y-25889650D01*
X24080238Y-25614343D01*
X23972819Y-25355009D01*
X23816870Y-25121615D01*
X23618385Y-24923130D01*
X23603909Y-24913457D01*
X23672720Y-24906680D01*
X23781108Y-24873801D01*
X23880998Y-24820408D01*
X23968554Y-24748554D01*
X24040408Y-24660998D01*
X24093801Y-24561108D01*
X24126680Y-24452720D01*
X24137782Y-24340000D01*
X24137782Y-22640000D01*
X24126680Y-22527280D01*
X24093801Y-22418892D01*
X24040408Y-22319002D01*
X23968554Y-22231446D01*
X23880998Y-22159592D01*
X23781108Y-22106199D01*
X23672720Y-22073320D01*
X23560000Y-22062218D01*
X21860000Y-22062218D01*
X21747280Y-22073320D01*
X21638892Y-22106199D01*
X21539002Y-22159592D01*
X21451446Y-22231446D01*
X21379592Y-22319002D01*
X21326199Y-22418892D01*
X21293320Y-22527280D01*
X21282218Y-22640000D01*
X20125000Y-22640000D01*
X20125000Y-21625000D01*
X26027468Y-21625000D01*
X25961724Y-21705109D01*
M02*
